<?xml version="1.0" encoding="UTF-8" standalone="no"?>
<!-- Created with Inkscape (http://www.inkscape.org/) -->

<svg
   xmlns:dc="http://purl.org/dc/elements/1.1/"
   xmlns:cc="http://creativecommons.org/ns#"
   xmlns:rdf="http://www.w3.org/1999/02/22-rdf-syntax-ns#"
   xmlns:svg="http://www.w3.org/2000/svg"
   xmlns="http://www.w3.org/2000/svg"
   xmlns:sodipodi="http://sodipodi.sourceforge.net/DTD/sodipodi-0.dtd"
   xmlns:inkscape="http://www.inkscape.org/namespaces/inkscape"
   width="100"
   height="96"
   id="svg2"
   version="1.1"
   inkscape:version="0.48.4 r9939"
   sodipodi:docname="weblogo.svg">
  <defs
     id="defs4">
    <filter
       id="filter3759"
       inkscape:label="Cutout"
       x="0"
       y="0"
       width="1"
       height="1"
       inkscape:menu="Shadows and Glows"
       inkscape:menu-tooltip="Drop shadow under the cut-out of the shape"
       color-interpolation-filters="sRGB">
      <feGaussianBlur
         id="feGaussianBlur3761"
         in="SourceAlpha"
         stdDeviation="4.2" />
      <feOffset
         id="feOffset3763"
         dy="5"
         dx="5"
         result="result91" />
      <feComposite
         id="feComposite3765"
         in2="result91"
         operator="out"
         in="SourceGraphic" />
    </filter>
    <filter
       id="filter4000"
       y="-0.25"
       height="1.5"
       inkscape:menu-tooltip="Darkens the edge with an inner blur and adds a flexible glow"
       inkscape:menu="Shadows and Glows"
       inkscape:label="Dark and Glow"
       color-interpolation-filters="sRGB">
      <feGaussianBlur
         id="feGaussianBlur4002"
         stdDeviation="5"
         result="result6" />
      <feComposite
         id="feComposite4004"
         in2="result6"
         result="result8"
         in="SourceGraphic"
         operator="atop" />
      <feComposite
         id="feComposite4006"
         in2="SourceAlpha"
         result="result9"
         operator="over"
         in="result8" />
      <feColorMatrix
         id="feColorMatrix4008"
         values="1 0 0 0 0 0 1 0 0 0 0 0 1 0 0 0 0 0 1 0 "
         result="result10" />
      <feBlend
         id="feBlend4010"
         in2="result6"
         in="result10"
         mode="normal" />
    </filter>
    <filter
       inkscape:collect="always"
       id="filter3898">
      <feGaussianBlur
         inkscape:collect="always"
         stdDeviation="54.219103"
         id="feGaussianBlur3900" />
    </filter>
    <radialGradient
       inkscape:collect="always"
       r="32"
       gradientTransform="matrix(-0.70429,1.8689,-1.2227,-0.46079,89.694,-78.647)"
       cx="58.594"
       cy="14.477"
       gradientUnits="userSpaceOnUse"
       id="radialGradient3842">
      <stop
         offset="0"
         style="stop-color:#e3dae1"
         id="stop3838" />
      <stop
         offset="1"
         style="stop-color:#8f1aaa"
         id="stop3840" />
    </radialGradient>
    <filter
       inkscape:collect="always"
       id="filter4490">
      <feGaussianBlur
         inkscape:collect="always"
         stdDeviation="99.401688"
         id="feGaussianBlur4492" />
    </filter>
  </defs>
  <sodipodi:namedview
     id="base"
     pagecolor="#ffffff"
     bordercolor="#666666"
     borderopacity="1.0"
     inkscape:pageopacity="0.0"
     inkscape:pageshadow="2"
     inkscape:zoom="7.9195959"
     inkscape:cx="44.817674"
     inkscape:cy="59.516698"
     inkscape:document-units="px"
     inkscape:current-layer="layer1"
     showgrid="false"
     inkscape:window-width="959"
     inkscape:window-height="744"
     inkscape:window-x="65"
     inkscape:window-y="24"
     inkscape:window-maximized="1"
     showguides="true"
     inkscape:guide-bbox="true">
    <sodipodi:guide
       orientation="0,1"
       position="29.168155,81.064742"
       id="guide3854" />
    <sodipodi:guide
       orientation="0,1"
       position="13.258252,10.985409"
       id="guide3856" />
    <sodipodi:guide
       orientation="1,0"
       position="15.026019,70.079333"
       id="guide3858" />
    <sodipodi:guide
       orientation="1,0"
       position="85.105352,42.552676"
       id="guide3860" />
  </sodipodi:namedview>
  <metadata
     id="metadata7">
    <rdf:RDF>
      <cc:Work
         rdf:about="">
        <dc:format>image/svg+xml</dc:format>
        <dc:type
           rdf:resource="http://purl.org/dc/dcmitype/StillImage" />
        <dc:title></dc:title>
      </cc:Work>
    </rdf:RDF>
  </metadata>
  <g
     inkscape:label="Layer 1"
     inkscape:groupmode="layer"
     id="layer1"
     transform="translate(0,-956.3622)">
    <rect
       style="fill:#00ff00;fill-opacity:1;fill-rule:evenodd;stroke:none;opacity:0.05349794"
       id="rect2985"
       width="100"
       height="96"
       x="7.8508009e-09"
       y="956.4364"
       inkscape:export-filename="/home/dinesh/PG-Code/CGP/www/img/web.png"
       inkscape:export-xdpi="90"
       inkscape:export-ydpi="90" />
    <g
       inkscape:label="Layer 1"
       id="layer1-9"
       transform="matrix(1.1006243,0,0,1.0946722,14.846097,971.24292)">
      <rect
         x="0.17463"
         y="0.18014"
         width="63.646999"
         height="63.645"
         ry="0"
         style="fill:url(#radialGradient3842);stroke:#8e228e;stroke-width:0.34926999"
         id="rect3032" />
      <g
         transform="matrix(0.014313,0,0,0.015518,55.473,-69.927)"
         style="opacity:0.37560999;stroke:#290505;stroke-width:40.77099991;filter:url(#filter4490)"
         id="g3934">
        <path
           d="m -1296,5044.4 c 171.78,252.13 483.03,360.1 712,448 171.05,273.53 226.4,478.15 440,624 -101.79,251.42 32.673,535.27 144,808 -382.71,120.8 -384.03,398.7 -416,664 -270.74,99.53 -518.18,239.85 -704,488 -299.92,-89.718 -576.36,7.9448 -856,80 -235.19,-229.35 -519.52,-335.87 -840,-352 -60.85,-315.15 -189.84,-562.16 -400,-728 126.08,-276.87 77.046,-536.24 -8,-792 224.46,-195.4 335.39,-428.65 368,-688 254.4,-118.4 504.46,-246.92 696,-512 290.67,72.296 573.33,37.007 864,-40 z"
           inkscape:connector-curvature="0"
           style="fill:none;stroke:#290505;stroke-width:40.77099991"
           sodipodi:nodetypes="ccccccccccccc"
           id="path3936" />
        <path
           inkscape:connector-curvature="0"
           style="fill:none;stroke:#290505;stroke-width:40.77099991"
           sodipodi:nodetypes="ccccccccccccc"
           d="m -1343,5275.8 c 146.24,214.64 411.17,306.53 606.08,381.36 145.6,232.82 192.72,407 374.54,531.17 -86.647,214.02 27.812,455.63 122.58,687.79 -325.77,102.87 -326.9,339.42 -354.11,565.21 -230.47,84.732 -441.09,204.16 -599.26,415.41 -255.32,-76.389 -490.61,6.7616 -728.66,68.095 -200.2,-195.23 -442.23,-285.91 -715.04,-299.63 -51.788,-268.28 -161.6,-478.53 -340.48,-619.69 107.31,-235.69 65.578,-456.47 -6.8154,-674.18 191.06,-166.34 285.5,-364.88 313.24,-585.65 216.56,-100.78 429.41,-210.2 592.47,-435.84 247.42,61.547 488.04,31.512 735.45,-34.047 z"
           id="path3938" />
        <path
           d="m -1393,5521.7 c 119.1,174.8 334.85,249.62 493.57,310.58 118.57,189.59 156.94,331.43 305.01,432.56 -70.561,174.29 22.648,371.04 99.821,560.1 -265.29,83.77 -266.21,276.4 -288.37,460.28 -187.68,69.012 -359.2,166.26 -488.01,338.29 -207.93,-62.211 -399.52,5.5025 -593.39,55.457 -163.03,-158.99 -360.13,-232.85 -582.31,-244 -42.163,-218.48 -131.59,-389.7 -277.26,-504.65 87.377,-191.93 53.404,-371.73 -5.5501,-549.01 155.58,-135.46 232.5,-297.14 255.08,-476.92 176.37,-82.076 349.69,-171.18 482.49,-354.95 201.49,50.129 397.44,25.676 598.9,-27.724 z"
           inkscape:connector-curvature="0"
           style="fill:none;stroke:#290505;stroke-width:40.77099991"
           sodipodi:nodetypes="ccccccccccccc"
           id="path3940" />
        <path
           inkscape:connector-curvature="0"
           style="fill:none;stroke:#290505;stroke-width:40.77099991"
           sodipodi:nodetypes="ccccccccccccc"
           d="m -1435.1,5729.2 c 96.197,141.19 270.45,201.61 398.63,250.86 95.766,153.1 126.75,267.67 246.34,349.35 -56.988,140.76 18.292,299.66 80.621,452.36 -214.26,67.657 -215.01,223.23 -232.9,371.74 -151.59,55.738 -290.1,134.28 -394.14,273.22 -167.94,-50.245 -322.67,4.4441 -479.25,44.798 -131.67,-128.42 -290.86,-188.07 -470.3,-197.07 -34.054,-176.46 -106.29,-314.74 -223.93,-407.58 70.56,-155.01 43.131,-300.22 -4.4826,-443.41 125.65,-109.41 187.78,-239.98 206.01,-385.18 142.46,-66.296 282.43,-138.26 389.7,-286.68 162.73,40.488 320.99,20.743 483.7,-22.396 z"
           id="path3942" />
        <path
           d="m -1482.3,5961.7 c 70.536,103.52 198.3,147.82 292.27,183.92 70.213,112.25 92.946,196.24 180.61,256.15 -41.783,103.2 13.411,219.7 59.11,331.65 -157.09,49.603 -157.63,163.67 -170.76,272.55 -111.14,40.871 -212.68,98.455 -288.96,200.32 -123.13,-36.829 -236.58,3.2669 -351.38,32.848 -96.529,-94.156 -213.25,-137.89 -344.8,-144.49 -24.974,-129.38 -77.932,-230.75 -164.18,-298.82 51.733,-113.65 31.626,-220.11 -3.2828,-325.09 92.128,-80.215 137.67,-175.95 151.04,-282.41 104.45,-48.599 207.06,-101.37 285.71,-210.18 119.31,29.678 235.33,15.208 354.62,-16.424 z"
           inkscape:connector-curvature="0"
           style="fill:none;stroke:#290505;stroke-width:40.77099991"
           sodipodi:nodetypes="ccccccccccccc"
           id="path3944" />
        <path
           inkscape:connector-curvature="0"
           style="fill:none;stroke:#290505;stroke-width:40.77099991"
           sodipodi:nodetypes="ccccccccccccc"
           d="m -1515.8,6126.9 c 52.291,76.752 147,109.58 216.66,136.35 52.05,83.209 68.904,145.47 133.9,189.88 -30.981,76.505 9.9363,162.87 43.82,245.87 -116.45,36.772 -116.85,121.33 -126.59,202.04 -82.392,30.297 -157.66,72.986 -214.21,148.51 -91.286,-27.309 -175.38,2.4154 -260.49,24.352 -71.554,-69.801 -158.09,-102.23 -255.61,-107.12 -18.511,-95.917 -57.773,-171.06 -121.71,-221.53 38.351,-84.244 23.442,-163.17 -2.4364,-241 68.294,-59.459 102.06,-130.43 111.97,-209.35 77.438,-36.034 153.5,-75.152 211.82,-155.82 88.436,22.002 174.46,11.282 262.89,-12.176 z"
           id="path3946" />
        <path
           d="m -1548,6285.4 c 34.793,51.061 97.793,72.902 144.13,90.71 34.629,55.357 45.845,96.776 89.085,126.32 -20.612,50.897 6.6072,108.35 29.151,163.57 -77.475,24.463 -77.737,80.713 -84.217,134.41 -54.813,20.157 -104.89,48.557 -142.51,98.798 -60.735,-18.168 -116.68,1.6069 -173.31,16.2 -47.598,-46.437 -105.17,-68.016 -170.05,-71.262 -12.316,-63.816 -38.435,-113.8 -80.97,-147.38 25.514,-56.046 15.595,-108.55 -1.6209,-160.33 45.434,-39.552 67.899,-86.774 74.49,-139.28 51.52,-23.973 102.12,-49.999 140.92,-103.66 58.833,14.633 116.06,7.5099 174.89,-8.1003 z"
           inkscape:connector-curvature="0"
           style="fill:none;stroke:#290505;stroke-width:40.77099991"
           sodipodi:nodetypes="ccccccccccccc"
           id="path3948" />
        <path
           inkscape:connector-curvature="0"
           style="fill:none;stroke:#290505;stroke-width:40.77099991"
           sodipodi:nodetypes="ccccccccccccc"
           d="m -1572.6,6406.4 c 21.426,31.443 60.22,44.892 88.754,55.858 21.325,34.088 28.232,59.594 54.86,77.789 -12.694,31.342 4.0675,66.722 17.95,100.73 -47.708,15.065 -47.869,49.698 -51.86,82.763 -33.752,12.413 -64.589,29.902 -87.752,60.84 -37.4,-11.188 -71.852,0.9895 -106.72,9.9761 -29.309,-28.595 -64.765,-41.883 -104.71,-43.882 -7.5856,-39.298 -23.668,-70.075 -49.86,-90.754 15.711,-34.512 9.6032,-66.844 -0.9981,-98.73 27.978,-24.354 41.811,-53.434 45.87,-85.766 31.725,-14.762 62.885,-30.79 86.775,-63.834 36.229,9.0067 71.468,4.6245 107.7,-4.9881 z"
           id="path3950" />
        <path
           d="m -1587.8,6481.3 c 13.15,19.298 36.96,27.553 54.473,34.283 13.088,20.922 17.327,36.576 33.672,47.743 -7.7921,19.236 2.4952,40.951 11.015,61.823 -29.281,9.2462 -29.38,30.502 -31.83,50.795 -20.715,7.6199 -39.641,18.353 -53.858,37.342 -22.954,-6.8665 -44.099,0.6073 -65.502,6.1228 -17.987,-17.55 -39.75,-25.706 -64.267,-26.933 -4.6571,-24.12 -14.526,-43.008 -30.602,-55.7 9.6428,-21.182 5.8937,-41.025 -0.6126,-60.596 17.171,-14.948 25.662,-32.796 28.153,-52.639 19.472,-9.0603 38.596,-18.9 53.259,-39.179 22.236,5.5279 43.864,2.8383 66.099,-3.0614 z"
           inkscape:connector-curvature="0"
           style="fill:none;stroke:#290505;stroke-width:40.77099991"
           sodipodi:nodetypes="ccccccccccccc"
           id="path3952" />
        <path
           inkscape:connector-curvature="0"
           style="fill:none;stroke:#290505;stroke-width:40.77099991"
           sodipodi:nodetypes="ccccccccccccc"
           d="m -1598,6531.3 c 7.6332,11.202 21.454,15.993 31.619,19.9 7.5972,12.144 10.058,21.23 19.546,27.712 -4.5242,11.166 1.4471,23.77 6.3926,35.885 -16.996,5.367 -17.054,17.705 -18.476,29.483 -12.024,4.4242 -23.009,10.654 -31.261,21.676 -13.324,-3.9856 -25.597,0.3525 -38.022,3.554 -10.439,-10.187 -23.072,-14.921 -37.303,-15.633 -2.7048,-14 -8.4317,-24.964 -17.763,-32.331 5.5971,-12.295 3.4207,-23.813 -0.3556,-35.173 9.9672,-8.6764 14.895,-19.036 16.341,-30.554 11.302,-5.259 22.403,-10.971 30.914,-22.741 12.907,3.2086 25.461,1.6475 38.367,-1.777 z"
           id="path3954" />
        <path
           d="m -1560,6556.4 1272,-1336"
           inkscape:connector-curvature="0"
           style="fill:none;stroke:#290505;stroke-width:40.77099991"
           id="path3956" />
        <path
           inkscape:connector-curvature="0"
           style="fill:none;stroke:#290505;stroke-width:40.77099991"
           d="m -1560,6556.4 1272,-1336"
           id="path3958" />
        <path
           d="m -1616,6532.4 368,-1728"
           inkscape:connector-curvature="0"
           style="fill:none;stroke:#290505;stroke-width:40.77099991"
           id="path3960" />
        <path
           d="m -1664,6540.4 -584,-1776"
           inkscape:connector-curvature="0"
           style="fill:none;stroke:#290505;stroke-width:40.77099991"
           id="path3962" />
        <path
           d="M -1719.8,6572.6 -3176.2,5300.1"
           inkscape:connector-curvature="0"
           style="fill:none;stroke:#290505;stroke-width:40.77099991"
           id="path3964" />
        <path
           d="M -1711.8,6628.6 -3600.2,6212.1"
           inkscape:connector-curvature="0"
           style="fill:none;stroke:#290505;stroke-width:40.77099991"
           id="path3966" />
        <path
           d="m -1720,6684.4 -1896,504"
           inkscape:connector-curvature="0"
           style="fill:none;stroke:#290505;stroke-width:40.77099991"
           id="path3968" />
        <path
           d="M -1680.2,6700.5 -3047.9,8028.2"
           inkscape:connector-curvature="0"
           style="fill:none;stroke:#290505;stroke-width:40.77099991"
           id="path3970" />
        <path
           d="m -1640,6668.4 -360,1704"
           inkscape:connector-curvature="0"
           style="fill:none;stroke:#290505;stroke-width:40.77099991"
           id="path3972" />
        <path
           d="m -1592,6644.4 576,1728"
           inkscape:connector-curvature="0"
           style="fill:none;stroke:#290505;stroke-width:40.77099991"
           id="path3974" />
        <path
           d="m -1536,6628.4 1448,1264"
           inkscape:connector-curvature="0"
           style="fill:none;stroke:#290505;stroke-width:40.77099991"
           id="path3976" />
        <path
           d="m 336,7012.4 -1832,-424 1744,-608"
           inkscape:connector-curvature="0"
           style="fill:none;stroke:#290505;stroke-width:40.77099991"
           id="path3978" />
        <path
           sodipodi:cx="-3676"
           sodipodi:cy="5080.3623"
           transform="translate(2064,1520)"
           d="m -3632,5080.3623 c 0,24.3005 -19.6995,44 -44,44 -24.3005,0 -44,-19.6995 -44,-44 0,-24.3005 19.6995,-44 44,-44 24.3005,0 44,19.6995 44,44 z"
           sodipodi:type="arc"
           style="fill:#2e3436;fill-opacity:0.91123998;stroke:#290505;stroke-width:40.77099991"
           sodipodi:ry="44"
           sodipodi:rx="44"
           id="path3980" />
      </g>
      <g
         transform="matrix(0.014313,0,0,0.015518,54.648,-69.927)"
         style="stroke:#411a1a;stroke-width:24.8220005"
         id="g4954">
        <path
           inkscape:connector-curvature="0"
           style="fill:none;stroke:#411a1a;stroke-width:24.8220005"
           sodipodi:nodetypes="ccccccccccccc"
           d="m -1296,5044.4 c 171.78,252.13 483.03,360.1 712,448 171.05,273.53 226.4,478.15 440,624 -6.6623,269.68 88.926,546.07 144,808 -382.71,120.8 -384.03,398.7 -416,664 -217.04,158.44 -367.15,405.51 -704,488 -299.92,-89.718 -576.36,7.9448 -856,80 -235.19,-229.35 -519.52,-335.87 -840,-352 -60.85,-315.15 -189.84,-562.16 -400,-728 126.08,-276.87 77.046,-536.24 -8,-792 224.46,-195.4 335.39,-428.65 368,-688 137.16,-193.42 440.94,-287.57 696,-512 290.67,72.296 573.33,37.007 864,-40 z"
           id="path4906" />
        <path
           d="m -1343,5275.8 c 146.24,214.64 411.17,306.53 606.08,381.36 145.6,232.82 192.72,407 374.54,531.17 -86.647,214.02 27.812,455.63 122.58,687.79 -325.77,102.87 -326.9,339.42 -354.11,565.21 -230.47,84.732 -441.09,204.16 -599.26,415.41 -240.26,-18.583 -474.96,66.851 -728.66,68.095 -200.2,-195.23 -442.23,-285.91 -715.04,-299.63 -51.788,-268.28 -161.6,-478.53 -340.48,-619.69 107.31,-235.69 65.578,-456.47 -6.8154,-674.18 191.06,-166.34 285.5,-364.88 313.24,-585.65 216.56,-100.78 429.41,-210.2 592.47,-435.84 247.42,61.547 488.04,31.512 735.45,-34.047 z"
           inkscape:connector-curvature="0"
           style="fill:none;stroke:#411a1a;stroke-width:24.8220005"
           sodipodi:nodetypes="ccccccccccccc"
           id="path4908" />
        <path
           inkscape:connector-curvature="0"
           style="fill:none;stroke:#411a1a;stroke-width:24.8220005"
           sodipodi:nodetypes="ccccccccccccc"
           d="m -1393,5521.7 c 119.1,174.8 334.85,249.62 493.57,310.58 118.57,189.59 156.94,331.43 305.01,432.56 -70.561,174.29 22.648,371.04 99.821,560.1 -265.29,83.77 -266.21,276.4 -288.37,460.28 -187.68,69.012 -359.2,166.26 -488.01,338.29 -207.93,-62.211 -399.52,5.5025 -593.39,55.457 -163.03,-158.99 -360.13,-232.85 -582.31,-244 -42.163,-218.48 -131.59,-389.7 -277.26,-504.65 87.377,-191.93 53.404,-371.73 -5.5501,-549.01 155.58,-135.46 232.5,-297.14 255.08,-476.92 176.37,-82.076 349.69,-171.18 482.49,-354.95 201.49,50.129 397.44,25.676 598.9,-27.724 z"
           id="path4910" />
        <path
           d="m -1435.1,5729.2 c 96.197,141.19 270.45,201.61 398.63,250.86 95.766,153.1 126.75,267.67 246.34,349.35 -56.988,140.76 18.292,299.66 80.621,452.36 -214.26,67.657 -215.01,223.23 -232.9,371.74 -151.59,55.738 -290.1,134.28 -394.14,273.22 -167.94,-50.245 -322.67,4.4441 -479.25,44.798 -131.67,-128.42 -290.86,-188.07 -470.3,-197.07 -142.21,-176.46 -144.21,-314.74 -223.93,-407.58 70.56,-155.01 43.131,-300.22 -4.4826,-443.41 125.65,-109.41 187.78,-239.98 206.01,-385.18 142.46,-66.296 282.43,-138.26 389.7,-286.68 162.73,40.488 320.99,20.743 483.7,-22.396 z"
           inkscape:connector-curvature="0"
           style="fill:none;stroke:#411a1a;stroke-width:24.8220005"
           sodipodi:nodetypes="ccccccccccccc"
           id="path4912" />
        <path
           inkscape:connector-curvature="0"
           style="fill:none;stroke:#411a1a;stroke-width:24.8220005"
           sodipodi:nodetypes="ccccccccccccc"
           d="m -1482.3,5961.7 c 70.536,103.52 198.3,147.82 292.27,183.92 70.213,112.25 92.946,196.24 180.61,256.15 -41.783,103.2 13.411,219.7 59.11,331.65 -157.09,49.603 -157.63,163.67 -170.76,272.55 -111.14,40.871 -212.68,98.455 -288.96,200.32 -123.13,-36.829 -236.58,3.2669 -351.38,32.848 -96.529,-94.156 -213.25,-137.89 -344.8,-144.49 -24.974,-129.38 -77.932,-230.75 -164.18,-298.82 51.733,-113.65 31.626,-220.11 -3.2828,-325.09 92.128,-80.215 137.67,-175.95 151.04,-282.41 104.45,-48.599 207.06,-101.37 285.71,-210.18 119.31,29.678 235.33,15.208 354.62,-16.424 z"
           id="path4914" />
        <path
           d="m -1515.8,6126.9 c 52.291,76.752 147,109.58 216.66,136.35 52.05,83.209 68.904,145.47 133.9,189.88 -30.981,76.505 9.9363,162.87 43.82,245.87 -116.45,36.772 -116.85,121.33 -126.59,202.04 -82.392,30.297 -157.66,72.986 -214.21,148.51 -91.286,-27.309 -175.38,2.4154 -260.49,24.352 -71.554,-69.801 -158.09,-102.23 -255.61,-107.12 -18.511,-95.917 -57.773,-171.06 -121.71,-221.53 38.351,-84.244 23.442,-163.17 -2.4364,-241 68.294,-59.459 102.06,-130.43 111.97,-209.35 77.438,-36.034 153.5,-75.152 211.82,-155.82 88.436,22.002 174.46,11.282 262.89,-12.176 z"
           inkscape:connector-curvature="0"
           style="fill:none;stroke:#411a1a;stroke-width:24.8220005"
           sodipodi:nodetypes="ccccccccccccc"
           id="path4916" />
        <path
           inkscape:connector-curvature="0"
           style="fill:none;stroke:#411a1a;stroke-width:24.8220005"
           sodipodi:nodetypes="ccccccccccccc"
           d="m -1548,6285.4 c 34.793,51.061 97.793,72.902 144.13,90.71 34.629,55.357 45.845,96.776 89.085,126.32 -20.612,50.897 6.6072,108.35 29.151,163.57 -77.475,24.463 -77.737,80.713 -84.217,134.41 -54.813,20.157 -104.89,48.557 -142.51,98.798 -60.735,-18.168 -116.68,1.6069 -173.31,16.2 -47.598,-46.437 -105.17,-68.016 -170.05,-71.262 -12.316,-63.816 -38.435,-113.8 -80.97,-147.38 25.514,-56.046 15.595,-108.55 -1.6209,-160.33 45.434,-39.552 67.899,-86.774 74.49,-139.28 51.52,-23.973 102.12,-49.999 140.92,-103.66 58.833,14.633 116.06,7.5099 174.89,-8.1003 z"
           id="path4918" />
        <path
           d="m -1572.6,6406.4 c 21.426,31.443 60.22,44.892 88.754,55.858 21.325,34.088 28.232,59.594 54.86,77.789 -12.694,31.342 4.0675,66.722 17.95,100.73 -47.708,15.065 -47.869,49.698 -51.86,82.763 -33.752,12.413 -64.589,29.902 -87.752,60.84 -37.4,-11.188 -71.852,0.9895 -106.72,9.9761 -29.309,-28.595 -64.765,-41.883 -104.71,-43.882 -7.5856,-39.298 -23.668,-70.075 -49.86,-90.754 15.711,-34.512 9.6032,-66.844 -0.9981,-98.73 27.978,-24.354 41.811,-53.434 45.87,-85.766 31.725,-14.762 62.885,-30.79 86.775,-63.834 36.229,9.0067 71.468,4.6245 107.7,-4.9881 z"
           inkscape:connector-curvature="0"
           style="fill:none;stroke:#411a1a;stroke-width:24.8220005"
           sodipodi:nodetypes="ccccccccccccc"
           id="path4920" />
        <path
           inkscape:connector-curvature="0"
           style="fill:none;stroke:#411a1a;stroke-width:24.8220005"
           sodipodi:nodetypes="ccccccccccccc"
           d="m -1587.8,6481.3 c 13.15,19.298 36.96,27.553 54.473,34.283 13.088,20.922 17.327,36.576 33.672,47.743 -7.7921,19.236 2.4952,40.951 11.015,61.823 -29.281,9.2462 -29.38,30.502 -31.83,50.795 -20.715,7.6199 -39.641,18.353 -53.858,37.342 -22.954,-6.8665 -44.099,0.6073 -65.502,6.1228 -17.987,-17.55 -39.75,-25.706 -64.267,-26.933 -4.6571,-24.12 -14.526,-43.008 -30.602,-55.7 9.6428,-21.182 5.8937,-41.025 -0.6126,-60.596 17.171,-14.948 25.662,-32.796 28.153,-52.639 19.472,-9.0603 38.596,-18.9 53.259,-39.179 22.236,5.5279 43.864,2.8383 66.099,-3.0614 z"
           id="path4922" />
        <path
           d="m -1598,6531.3 c 7.6332,11.202 21.454,15.993 31.619,19.9 7.5972,12.144 10.058,21.23 19.546,27.712 -4.5242,11.166 1.4471,23.77 6.3926,35.885 -16.996,5.367 -17.054,17.705 -18.476,29.483 -12.024,4.4242 -23.009,10.654 -31.261,21.676 -13.324,-3.9856 -25.597,0.3525 -38.022,3.554 -10.439,-10.187 -23.072,-14.921 -37.303,-15.633 -2.7048,-14 -8.4317,-24.964 -17.763,-32.331 5.5971,-12.295 3.4207,-23.813 -0.3556,-35.173 9.9672,-8.6764 14.895,-19.036 16.341,-30.554 11.302,-5.259 22.403,-10.971 30.914,-22.741 12.907,3.2086 25.461,1.6475 38.367,-1.777 z"
           inkscape:connector-curvature="0"
           style="fill:none;stroke:#411a1a;stroke-width:24.8220005"
           sodipodi:nodetypes="ccccccccccccc"
           id="path4924" />
        <path
           inkscape:connector-curvature="0"
           style="fill:none;stroke:#411a1a;stroke-width:24.8220005"
           d="m -1560,6556.4 1272,-1336"
           id="path4926" />
        <path
           d="m -1560,6556.4 1272,-1336"
           inkscape:connector-curvature="0"
           style="fill:none;stroke:#411a1a;stroke-width:24.8220005"
           id="path4928" />
        <path
           inkscape:connector-curvature="0"
           style="fill:none;stroke:#411a1a;stroke-width:24.8220005"
           d="m -1616,6532.4 368,-1728"
           id="path4930" />
        <path
           inkscape:connector-curvature="0"
           style="fill:none;stroke:#411a1a;stroke-width:24.8220005"
           d="m -1664,6540.4 -584,-1776"
           id="path4932" />
        <path
           inkscape:connector-curvature="0"
           style="fill:none;stroke:#411a1a;stroke-width:24.8220005"
           d="M -1719.8,6572.6 -3176.2,5300.1"
           id="path4934" />
        <path
           inkscape:connector-curvature="0"
           style="fill:none;stroke:#411a1a;stroke-width:24.8220005"
           d="M -1711.8,6628.6 -3600.2,6212.1"
           id="path4936" />
        <path
           inkscape:connector-curvature="0"
           style="fill:none;stroke:#411a1a;stroke-width:24.8220005"
           d="m -1720,6684.4 -1896,504"
           id="path4938" />
        <path
           inkscape:connector-curvature="0"
           style="fill:none;stroke:#411a1a;stroke-width:24.8220005"
           d="M -1680.2,6700.5 -3047.9,8028.2"
           id="path4940" />
        <path
           inkscape:connector-curvature="0"
           style="fill:none;stroke:#411a1a;stroke-width:24.8220005"
           d="m -1640,6668.4 -360,1704"
           id="path4942" />
        <path
           inkscape:connector-curvature="0"
           style="fill:none;stroke:#411a1a;stroke-width:24.8220005"
           d="m -1592,6644.4 576,1728"
           id="path4944" />
        <path
           inkscape:connector-curvature="0"
           style="fill:none;stroke:#411a1a;stroke-width:24.8220005"
           d="m -1536,6628.4 1448,1264"
           id="path4946" />
        <path
           inkscape:connector-curvature="0"
           style="fill:none;stroke:#411a1a;stroke-width:24.8220005"
           d="m 336,7012.4 -1832,-424 1744,-608"
           id="path4948" />
        <path
           sodipodi:cx="-3676"
           sodipodi:cy="5080.3623"
           transform="translate(2064,1520)"
           d="m -3632,5080.3623 c 0,24.3005 -19.6995,44 -44,44 -24.3005,0 -44,-19.6995 -44,-44 0,-24.3005 19.6995,-44 44,-44 24.3005,0 44,19.6995 44,44 z"
           sodipodi:type="arc"
           style="fill:#2e3436;fill-opacity:0.91123998;stroke:#411a1a;stroke-width:24.8220005"
           sodipodi:ry="44"
           sodipodi:rx="44"
           id="path4950" />
      </g>
      <g
         transform="matrix(0.014313,0,0,0.015518,54.648,-69.927)"
         style="stroke:#161448;stroke-width:24.8220005;filter:url(#filter3898)"
         id="g3850">
        <path
           d="m -1296,5044.4 c 171.78,252.13 483.03,360.1 712,448 171.05,273.53 226.4,478.15 440,624 -6.6623,269.68 88.926,546.07 144,808 -382.71,120.8 -384.03,398.7 -416,664 -217.04,158.44 -367.15,405.51 -704,488 -299.92,-89.718 -576.36,7.9448 -856,80 -235.19,-229.35 -519.52,-335.87 -840,-352 -60.85,-315.15 -189.84,-562.16 -400,-728 126.08,-276.87 77.046,-536.24 -8,-792 224.46,-195.4 335.39,-428.65 368,-688 137.16,-193.42 440.94,-287.57 696,-512 290.67,72.296 573.33,37.007 864,-40 z"
           inkscape:connector-curvature="0"
           style="fill:none;stroke:#161448;stroke-width:24.8220005"
           sodipodi:nodetypes="ccccccccccccc"
           id="path3852" />
        <path
           inkscape:connector-curvature="0"
           style="fill:none;stroke:#161448;stroke-width:24.8220005"
           sodipodi:nodetypes="ccccccccccccc"
           d="m -1343,5275.8 c 146.24,214.64 411.17,306.53 606.08,381.36 145.6,232.82 192.72,407 374.54,531.17 -86.647,214.02 27.812,455.63 122.58,687.79 -325.77,102.87 -326.9,339.42 -354.11,565.21 -230.47,84.732 -441.09,204.16 -599.26,415.41 -240.26,-18.583 -474.96,66.851 -728.66,68.095 -200.2,-195.23 -442.23,-285.91 -715.04,-299.63 -51.788,-268.28 -161.6,-478.53 -340.48,-619.69 107.31,-235.69 65.578,-456.47 -6.8154,-674.18 191.06,-166.34 285.5,-364.88 313.24,-585.65 216.56,-100.78 429.41,-210.2 592.47,-435.84 247.42,61.547 488.04,31.512 735.45,-34.047 z"
           id="path3854" />
        <path
           d="m -1393,5521.7 c 119.1,174.8 334.85,249.62 493.57,310.58 118.57,189.59 156.94,331.43 305.01,432.56 -70.561,174.29 22.648,371.04 99.821,560.1 -265.29,83.77 -266.21,276.4 -288.37,460.28 -187.68,69.012 -359.2,166.26 -488.01,338.29 -207.93,-62.211 -399.52,5.5025 -593.39,55.457 -163.03,-158.99 -360.13,-232.85 -582.31,-244 -42.163,-218.48 -131.59,-389.7 -277.26,-504.65 87.377,-191.93 53.404,-371.73 -5.5501,-549.01 155.58,-135.46 232.5,-297.14 255.08,-476.92 176.37,-82.076 349.69,-171.18 482.49,-354.95 201.49,50.129 397.44,25.676 598.9,-27.724 z"
           inkscape:connector-curvature="0"
           style="fill:none;stroke:#161448;stroke-width:24.8220005"
           sodipodi:nodetypes="ccccccccccccc"
           id="path3856" />
        <path
           inkscape:connector-curvature="0"
           style="fill:none;stroke:#161448;stroke-width:24.8220005"
           sodipodi:nodetypes="ccccccccccccc"
           d="m -1435.1,5729.2 c 96.197,141.19 270.45,201.61 398.63,250.86 95.766,153.1 126.75,267.67 246.34,349.35 -56.988,140.76 18.292,299.66 80.621,452.36 -214.26,67.657 -215.01,223.23 -232.9,371.74 -151.59,55.738 -290.1,134.28 -394.14,273.22 -167.94,-50.245 -322.67,4.4441 -479.25,44.798 -131.67,-128.42 -290.86,-188.07 -470.3,-197.07 -142.21,-176.46 -144.21,-314.74 -223.93,-407.58 70.56,-155.01 43.131,-300.22 -4.4826,-443.41 125.65,-109.41 187.78,-239.98 206.01,-385.18 142.46,-66.296 282.43,-138.26 389.7,-286.68 162.73,40.488 320.99,20.743 483.7,-22.396 z"
           id="path3858" />
        <path
           d="m -1482.3,5961.7 c 70.536,103.52 198.3,147.82 292.27,183.92 70.213,112.25 92.946,196.24 180.61,256.15 -41.783,103.2 13.411,219.7 59.11,331.65 -157.09,49.603 -157.63,163.67 -170.76,272.55 -111.14,40.871 -212.68,98.455 -288.96,200.32 -123.13,-36.829 -236.58,3.2669 -351.38,32.848 -96.529,-94.156 -213.25,-137.89 -344.8,-144.49 -24.974,-129.38 -77.932,-230.75 -164.18,-298.82 51.733,-113.65 31.626,-220.11 -3.2828,-325.09 92.128,-80.215 137.67,-175.95 151.04,-282.41 104.45,-48.599 207.06,-101.37 285.71,-210.18 119.31,29.678 235.33,15.208 354.62,-16.424 z"
           inkscape:connector-curvature="0"
           style="fill:none;stroke:#161448;stroke-width:24.8220005"
           sodipodi:nodetypes="ccccccccccccc"
           id="path3860" />
        <path
           inkscape:connector-curvature="0"
           style="fill:none;stroke:#161448;stroke-width:24.8220005"
           sodipodi:nodetypes="ccccccccccccc"
           d="m -1515.8,6126.9 c 52.291,76.752 147,109.58 216.66,136.35 52.05,83.209 68.904,145.47 133.9,189.88 -30.981,76.505 9.9363,162.87 43.82,245.87 -116.45,36.772 -116.85,121.33 -126.59,202.04 -82.392,30.297 -157.66,72.986 -214.21,148.51 -91.286,-27.309 -175.38,2.4154 -260.49,24.352 -71.554,-69.801 -158.09,-102.23 -255.61,-107.12 -18.511,-95.917 -57.773,-171.06 -121.71,-221.53 38.351,-84.244 23.442,-163.17 -2.4364,-241 68.294,-59.459 102.06,-130.43 111.97,-209.35 77.438,-36.034 153.5,-75.152 211.82,-155.82 88.436,22.002 174.46,11.282 262.89,-12.176 z"
           id="path3862" />
        <path
           d="m -1548,6285.4 c 34.793,51.061 97.793,72.902 144.13,90.71 34.629,55.357 45.845,96.776 89.085,126.32 -20.612,50.897 6.6072,108.35 29.151,163.57 -77.475,24.463 -77.737,80.713 -84.217,134.41 -54.813,20.157 -104.89,48.557 -142.51,98.798 -60.735,-18.168 -116.68,1.6069 -173.31,16.2 -47.598,-46.437 -105.17,-68.016 -170.05,-71.262 -12.316,-63.816 -38.435,-113.8 -80.97,-147.38 25.514,-56.046 15.595,-108.55 -1.6209,-160.33 45.434,-39.552 67.899,-86.774 74.49,-139.28 51.52,-23.973 102.12,-49.999 140.92,-103.66 58.833,14.633 116.06,7.5099 174.89,-8.1003 z"
           inkscape:connector-curvature="0"
           style="fill:none;stroke:#161448;stroke-width:24.8220005"
           sodipodi:nodetypes="ccccccccccccc"
           id="path3864" />
        <path
           inkscape:connector-curvature="0"
           style="fill:none;stroke:#161448;stroke-width:24.8220005"
           sodipodi:nodetypes="ccccccccccccc"
           d="m -1572.6,6406.4 c 21.426,31.443 60.22,44.892 88.754,55.858 21.325,34.088 28.232,59.594 54.86,77.789 -12.694,31.342 4.0675,66.722 17.95,100.73 -47.708,15.065 -47.869,49.698 -51.86,82.763 -33.752,12.413 -64.589,29.902 -87.752,60.84 -37.4,-11.188 -71.852,0.9895 -106.72,9.9761 -29.309,-28.595 -64.765,-41.883 -104.71,-43.882 -7.5856,-39.298 -23.668,-70.075 -49.86,-90.754 15.711,-34.512 9.6032,-66.844 -0.9981,-98.73 27.978,-24.354 41.811,-53.434 45.87,-85.766 31.725,-14.762 62.885,-30.79 86.775,-63.834 36.229,9.0067 71.468,4.6245 107.7,-4.9881 z"
           id="path3866" />
        <path
           d="m -1587.8,6481.3 c 13.15,19.298 36.96,27.553 54.473,34.283 13.088,20.922 17.327,36.576 33.672,47.743 -7.7921,19.236 2.4952,40.951 11.015,61.823 -29.281,9.2462 -29.38,30.502 -31.83,50.795 -20.715,7.6199 -39.641,18.353 -53.858,37.342 -22.954,-6.8665 -44.099,0.6073 -65.502,6.1228 -17.987,-17.55 -39.75,-25.706 -64.267,-26.933 -4.6571,-24.12 -14.526,-43.008 -30.602,-55.7 9.6428,-21.182 5.8937,-41.025 -0.6126,-60.596 17.171,-14.948 25.662,-32.796 28.153,-52.639 19.472,-9.0603 38.596,-18.9 53.259,-39.179 22.236,5.5279 43.864,2.8383 66.099,-3.0614 z"
           inkscape:connector-curvature="0"
           style="fill:none;stroke:#161448;stroke-width:24.8220005"
           sodipodi:nodetypes="ccccccccccccc"
           id="path3868" />
        <path
           inkscape:connector-curvature="0"
           style="fill:none;stroke:#161448;stroke-width:24.8220005"
           sodipodi:nodetypes="ccccccccccccc"
           d="m -1598,6531.3 c 7.6332,11.202 21.454,15.993 31.619,19.9 7.5972,12.144 10.058,21.23 19.546,27.712 -4.5242,11.166 1.4471,23.77 6.3926,35.885 -16.996,5.367 -17.054,17.705 -18.476,29.483 -12.024,4.4242 -23.009,10.654 -31.261,21.676 -13.324,-3.9856 -25.597,0.3525 -38.022,3.554 -10.439,-10.187 -23.072,-14.921 -37.303,-15.633 -2.7048,-14 -8.4317,-24.964 -17.763,-32.331 5.5971,-12.295 3.4207,-23.813 -0.3556,-35.173 9.9672,-8.6764 14.895,-19.036 16.341,-30.554 11.302,-5.259 22.403,-10.971 30.914,-22.741 12.907,3.2086 25.461,1.6475 38.367,-1.777 z"
           id="path3870" />
        <path
           d="m -1560,6556.4 1272,-1336"
           inkscape:connector-curvature="0"
           style="fill:none;stroke:#161448;stroke-width:24.8220005"
           id="path3872" />
        <path
           inkscape:connector-curvature="0"
           style="fill:none;stroke:#161448;stroke-width:24.8220005"
           d="m -1560,6556.4 1272,-1336"
           id="path3874" />
        <path
           d="m -1616,6532.4 368,-1728"
           inkscape:connector-curvature="0"
           style="fill:none;stroke:#161448;stroke-width:24.8220005"
           id="path3876" />
        <path
           d="m -1664,6540.4 -584,-1776"
           inkscape:connector-curvature="0"
           style="fill:none;stroke:#161448;stroke-width:24.8220005"
           id="path3878" />
        <path
           d="M -1719.8,6572.6 -3176.2,5300.1"
           inkscape:connector-curvature="0"
           style="fill:none;stroke:#161448;stroke-width:24.8220005"
           id="path3880" />
        <path
           d="M -1711.8,6628.6 -3600.2,6212.1"
           inkscape:connector-curvature="0"
           style="fill:none;stroke:#161448;stroke-width:24.8220005"
           id="path3882" />
        <path
           d="m -1720,6684.4 -1896,504"
           inkscape:connector-curvature="0"
           style="fill:none;stroke:#161448;stroke-width:24.8220005"
           id="path3884" />
        <path
           d="M -1680.2,6700.5 -3047.9,8028.2"
           inkscape:connector-curvature="0"
           style="fill:none;stroke:#161448;stroke-width:24.8220005"
           id="path3886" />
        <path
           d="m -1640,6668.4 -360,1704"
           inkscape:connector-curvature="0"
           style="fill:none;stroke:#161448;stroke-width:24.8220005"
           id="path3888" />
        <path
           d="m -1592,6644.4 576,1728"
           inkscape:connector-curvature="0"
           style="fill:none;stroke:#161448;stroke-width:24.8220005"
           id="path3890" />
        <path
           d="m -1536,6628.4 1448,1264"
           inkscape:connector-curvature="0"
           style="fill:none;stroke:#161448;stroke-width:24.8220005"
           id="path3892" />
        <path
           d="m 336,7012.4 -1832,-424 1744,-608"
           inkscape:connector-curvature="0"
           style="fill:none;stroke:#161448;stroke-width:24.8220005"
           id="path3894" />
        <path
           sodipodi:cx="-3676"
           sodipodi:cy="5080.3623"
           transform="translate(2064,1520)"
           d="m -3632,5080.3623 c 0,24.3005 -19.6995,44 -44,44 -24.3005,0 -44,-19.6995 -44,-44 0,-24.3005 19.6995,-44 44,-44 24.3005,0 44,19.6995 44,44 z"
           sodipodi:type="arc"
           style="fill:#2e3436;fill-opacity:0.91123998;stroke:#161448;stroke-width:24.8220005"
           sodipodi:ry="44"
           sodipodi:rx="44"
           id="path3896" />
      </g>
    </g>
  </g>
</svg>
